<svg width="1347" height="1687" xmlns="http://www.w3.org/2000/svg" xmlns:xlink="http://www.w3.org/1999/xlink" xml:space="preserve" overflow="hidden"><defs><clipPath id="clip0"><rect x="553" y="385" width="1347" height="1687"/></clipPath></defs><g clip-path="url(#clip0)" transform="translate(-553 -385)"><text font-family="Arial,Arial_MSFontService,sans-serif" font-weight="700" font-size="92" transform="matrix(1 0 0 1 732.724 502)">1. Detect the problem</text><text font-family="Arial,Arial_MSFontService,sans-serif" font-weight="700" font-size="92" transform="matrix(1 0 0 1 711.897 801)">2</text><text font-family="Arial,Arial_MSFontService,sans-serif" font-weight="700" font-size="92" transform="matrix(1 0 0 1 762.887 801)">. Identify the problem</text><text font-family="Arial,Arial_MSFontService,sans-serif" font-weight="700" font-size="92" transform="matrix(1 0 0 1 608.633 1099)">3. Establish decision criteria</text><text font-family="Arial,Arial_MSFontService,sans-serif" font-weight="700" font-size="92" transform="matrix(1 0 0 1 704.087 1398)">4. Develop alternatives</text><text font-family="Arial,Arial_MSFontService,sans-serif" font-weight="700" font-size="92" transform="matrix(1 0 0 1 696.567 1697)">5. Evaluate alternatives</text><text font-family="Arial,Arial_MSFontService,sans-serif" font-weight="700" font-size="92" transform="matrix(1 0 0 1 683.55 1995)">6. Choose an alternative</text><path d="M1193.81 541.5 1193.81 644.151 1173.19 644.151 1173.19 541.5ZM1214.44 633.839 1183.5 695.714 1152.56 633.839Z" fill="#008EC6"/><path d="M1193.81 840.5 1193.81 943.151 1173.19 943.151 1173.19 840.5ZM1214.44 932.839 1183.5 994.714 1152.56 932.839Z" fill="#008EC6"/><path d="M10.3125-2.41334e-05 10.3127 102.651-10.3123 102.652-10.3125 2.41334e-05ZM30.9377 92.3389 0.000360892 154.214-30.9373 92.3391Z" fill="#008EC6" transform="matrix(-1 0 0 1 1183.5 1138.5)"/><path d="M1193.81 1437.5 1193.81 1540.15 1173.19 1540.15 1173.19 1437.5ZM1214.44 1529.84 1183.5 1591.71 1152.56 1529.84Z" fill="#008EC6"/><path d="M1193.81 1735.5 1193.81 1838.15 1173.19 1838.15 1173.19 1735.5ZM1214.44 1827.84 1183.5 1889.71 1152.56 1827.84Z" fill="#008EC6"/></g></svg>